<svg
    xmlns="http://www.w3.org/2000/svg"
    viewBox="0 0 2500 2500">
  <g>
    <path
        d="M365 453.86h165v1095h652.5v135H365v-1230z"/>
    <path
        d="M1696.976 750.89c-168.75-2.25-337.5 105-390 267.75-75 187.5-40.5 423 106.5 566.25 142.5 118.5 357 127.5 517.5 43.5 110.25-58.5 180-174.75 195-297 19.5-127.5 9.75-267-52.5-382.5-73.5-123-217.5-202.5-360-197.25l-16.5-2.25zm15 130.5c123.75 0 234.75 94.5 255 216 37.5 137.25 15 305.25-97.5 402-105 85.5-273.75 73.5-360-32.25-105-112.5-105-285-51-420 37.5-97.5 137.25-167.25 242.25-165h13.5z"/>
    <path
        d="M365 1858.64h1770v187.5H365v-187.5z"
        fill="#3492ff"/>
  </g>
</svg>
