<svg xmlns="http://www.w3.org/2000/svg" width="256pt" height="256pt" viewBox="0 0 256 256"><path fill="#fff" d="M0 0h256v256H0V0z"/><path d="M10 20h22v146h87v18H10V20zM179 63c15-2 31 1 43 11 13 9 20 25 21 40 2 18 0 36-10 51-9 12-23 20-39 21-15 2-32-1-45-11-12-10-18-25-20-40-2-16 0-34 10-48 8-14 24-23 40-24z"/><path fill="#fff" d="M182 80c10-1 21 2 29 9 7 8 11 18 12 28 1 11 0 23-5 33s-14 17-25 19c-10 2-21-1-28-7-8-6-13-15-15-24-2-13-1-26 4-38 5-11 16-19 28-20z"/><path fill="#3492ff" d="M10 210h236v25H10v-25z"/></svg>